<svg xmlns="http://www.w3.org/2000/svg" width="240" height="240" viewBox="0 0 240 240">
  <rect width="240" height="240" fill="#0b0d14"/>
  <g fill="none" stroke="#232733" stroke-width="1.75" stroke-linecap="round" stroke-linejoin="round">
    <!-- Chart / Line trend at (90, 20) -->
    <g transform="translate(80, 10)">
      <polyline points="2,16 7,11 11,14 18,5"/>
      <line x1="2" y1="18" x2="18" y2="18"/>
    </g>

    <!-- Database at (210, 20) -->
    <g transform="translate(201, 10)">
      <ellipse cx="9" cy="4" rx="8" ry="3"/>
      <path d="M1 4v5c0 1.66 3.58 3 8 3s8-1.34 8-3V4"/>
      <path d="M1 9v5c0 1.66 3.58 3 8 3s8-1.34 8-3V9"/>
    </g>

    <!-- Monitor / Desktop at (30, 80) -->
    <g transform="translate(20, 71)">
      <rect x="1" y="2" width="18" height="12" rx="2"/>
      <line x1="6" y1="17" x2="14" y2="17"/>
      <line x1="10" y1="14" x2="10" y2="17"/>
    </g>

    <!-- Share / Network node at (150, 80) -->
    <g transform="translate(141, 71)">
      <circle cx="14" cy="4" r="2.5"/>
      <circle cx="4" cy="10" r="2.5"/>
      <circle cx="14" cy="16" r="2.5"/>
      <line x1="6.2" y1="8.8" x2="11.8" y2="5.2"/>
      <line x1="6.2" y1="11.2" x2="11.8" y2="14.8"/>
    </g>

    <!-- Users Group at (90, 140) -->
    <g transform="translate(79, 131)">
      <path d="M13 17v-1.5a3 3 0 0 0-2.5-3h-5a3 3 0 0 0-2.5 3V17"/>
      <circle cx="8" cy="6.5" r="2.8"/>
      <path d="M18 16.5v-1a2.8 2.8 0 0 0-2-2.7"/>
      <path d="M14 4a2.8 2.8 0 0 1 0 5"/>
    </g>

    <!-- Shield at (210, 140) -->
    <g transform="translate(201, 130)">
      <path d="M9 2l7 3v5c0 5-3.5 8.5-7 10-3.5-1.5-7-5-7-10V5l7-3z"/>
      <line x1="9" y1="7" x2="9" y2="11"/>
      <line x1="9" y1="13.5" x2="9.01" y2="13.5" stroke-width="2"/>
    </g>
  </g>
</svg>
